<svg xmlns="http://www.w3.org/2000/svg" width="760" height="556" viewBox="0 0 760 556" font-family="Inter, Helvetica, Arial, sans-serif" role="img" aria-label="A burst: the backlog peaks at 587K messages and drains 50 s after input returns to normal">
<rect width="760" height="556" fill="#fcfcfb"/>
<text x="64" y="22" font-size="15" font-weight="600" fill="#0b0b0b">A burst: the backlog peaks at 587K messages and drains 50 s after input returns to normal</text>
<text x="64" y="40" font-size="12" fill="#52514e">100K vehicles at 10K events/s, 3x burst requested; the simulator delivered ~22K/s on the shared 4 vCPUs</text>
<rect x="202.1" y="74" width="138.1" height="190" fill="#f1f0ec"/>
<text x="206.1" y="86" font-size="11" fill="#52514e">burst window</text>
<line x1="64" x2="610" y1="264.0" y2="264.0" stroke="#b9b8b3" stroke-width="1"/>
<text x="56" y="268.0" font-size="11" fill="#52514e" text-anchor="end">0</text>
<line x1="64" x2="610" y1="200.7" y2="200.7" stroke="#e8e7e3" stroke-width="1"/>
<text x="56" y="204.7" font-size="11" fill="#52514e" text-anchor="end">10K</text>
<line x1="64" x2="610" y1="137.3" y2="137.3" stroke="#e8e7e3" stroke-width="1"/>
<text x="56" y="141.3" font-size="11" fill="#52514e" text-anchor="end">20K</text>
<line x1="64" x2="610" y1="74.0" y2="74.0" stroke="#e8e7e3" stroke-width="1"/>
<text x="56" y="78.0" font-size="11" fill="#52514e" text-anchor="end">30K</text>
<text x="64" y="66" font-size="12" fill="#0b0b0b">messages per second</text>
<path d="M64.0,223.5 L70.6,264.0 L116.6,247.4 L123.2,236.5 L129.8,225.7 L136.4,215.0 L142.9,199.1 L149.5,199.0 L156.1,199.0 L162.7,199.1 L169.3,199.0 L175.8,199.3 L182.4,205.8 L189.0,203.1 L195.6,189.6 L202.1,168.5 L208.7,151.1 L215.3,144.9 L221.9,130.6 L228.5,125.0 L235.0,129.6 L241.6,133.0 L248.2,117.7 L254.8,118.7 L261.3,122.3 L267.9,118.2 L274.5,113.1 L281.1,107.7 L287.7,107.7 L294.2,112.1 L300.8,116.4 L307.4,120.7 L314.0,131.5 L320.6,138.6 L327.1,153.0 L333.7,166.0 L340.3,180.4 L346.9,190.5 L353.4,199.1 L360.0,199.0 L366.6,200.0 L373.2,199.2 L379.8,198.8 L386.3,199.2 L392.9,199.0 L399.5,198.4 L406.1,199.2 L412.7,199.1 L419.2,199.0 L425.8,199.1 L432.4,199.2 L439.0,199.0 L445.5,199.2 L452.1,199.4 L458.7,199.3 L465.3,199.1 L471.9,199.4 L478.4,199.5 L485.0,199.4 L491.6,199.4 L498.2,199.5 L504.7,199.6 L511.3,199.5 L517.9,199.5 L524.5,199.7 L531.1,205.9 L537.6,205.8 L544.2,205.7 L550.8,205.5 L557.4,205.5 L564.0,199.4 L570.5,199.3 L577.1,199.3 L583.7,199.3 L590.3,199.1 L596.8,198.9 L603.4,198.9 L610.0,199.2" fill="none" stroke="#2a78d6" stroke-width="2" stroke-linejoin="round" stroke-linecap="round"/>
<path d="M64.0,219.6 L70.6,240.1 L77.2,254.1 L83.7,244.1 L90.3,231.4 L96.9,222.6 L103.5,215.2 L110.0,200.7 L116.6,200.6 L123.2,200.5 L129.8,200.3 L136.4,199.7 L142.9,199.8 L149.5,200.1 L156.1,200.1 L162.7,200.2 L169.3,200.2 L175.8,200.6 L182.4,199.9 L189.0,200.0 L195.6,191.7 L202.1,168.0 L208.7,154.8 L215.3,138.1 L221.9,122.1 L228.5,115.3 L235.0,124.5 L241.6,119.1 L248.2,122.2 L254.8,120.8 L261.3,118.5 L267.9,114.9 L274.5,118.7 L281.1,113.6 L287.7,112.0 L294.2,117.0 L300.8,119.9 L307.4,123.5 L314.0,130.0 L320.6,138.9 L327.1,150.5 L333.7,166.2 L340.3,176.8 L346.9,190.1 L353.4,199.6 L360.0,200.1 L366.6,200.4 L373.2,200.0 L379.8,199.4 L386.3,200.0 L392.9,200.0 L399.5,199.4 L406.1,200.2 L412.7,199.9 L419.2,199.9 L425.8,199.8 L432.4,199.9 L439.0,199.9 L445.5,199.9 L452.1,199.9 L458.7,200.1 L465.3,199.9 L471.9,200.0 L478.4,200.1 L485.0,200.3 L491.6,200.1 L498.2,199.8 L504.7,199.9 L511.3,199.9 L517.9,200.0 L524.5,200.2 L531.1,200.1 L537.6,200.3 L544.2,200.2 L550.8,200.0 L557.4,199.7 L564.0,200.3 L570.5,199.8 L577.1,199.9 L583.7,199.9 L590.3,200.2 L596.8,199.8 L603.4,200.1 L610.0,199.9" fill="none" stroke="#eb6834" stroke-width="2" stroke-linejoin="round" stroke-linecap="round"/>
<path d="M64.0,221.5 L70.6,240.6 L77.2,259.4 L83.7,264.0 L90.3,264.0 L123.2,238.2 L129.8,228.3 L136.4,217.5 L142.9,201.0 L149.5,200.9 L156.1,201.5 L162.7,201.6 L169.3,201.5 L175.8,201.9 L182.4,201.5 L189.0,201.0 L195.6,196.4 L202.1,180.9 L208.7,174.2 L215.3,169.6 L221.9,165.6 L228.5,159.6 L235.0,173.8 L241.6,165.2 L248.2,165.2 L254.8,160.2 L261.3,166.7 L267.9,162.2 L274.5,166.2 L281.1,161.7 L287.7,158.1 L294.2,158.6 L300.8,161.1 L307.4,166.8 L314.0,169.8 L320.6,172.3 L327.1,149.5 L333.7,134.3 L340.3,121.1 L346.9,114.5 L353.4,117.6 L360.0,130.2 L366.6,141.4 L373.2,147.5 L379.8,147.5 L386.3,138.9 L392.9,146.8 L399.5,154.3 L406.1,166.8 L412.7,179.8 L419.2,195.9 L425.8,201.2 L432.4,201.3 L439.0,201.6 L445.5,201.4 L452.1,201.2 L458.7,201.0 L465.3,201.6 L471.9,200.9 L478.4,201.5 L485.0,201.4 L491.6,202.4 L498.2,200.8 L504.7,201.0 L511.3,201.0 L517.9,200.9 L524.5,200.7 L531.1,201.3 L537.6,201.1 L544.2,201.8 L550.8,201.3 L557.4,201.0 L564.0,201.9 L570.5,202.0 L577.1,200.9 L583.7,201.2 L590.3,201.5 L596.8,200.8 L603.4,201.0 L610.0,201.1" fill="none" stroke="#1baf7a" stroke-width="2" stroke-linejoin="round" stroke-linecap="round"/>
<circle cx="618" cy="195.2" r="4" fill="#2a78d6"/>
<text x="626" y="199.2" font-size="11" fill="#0b0b0b">delivered</text>
<circle cx="618" cy="209.2" r="4" fill="#eb6834"/>
<text x="626" y="213.2" font-size="11" fill="#0b0b0b">normalizer</text>
<circle cx="618" cy="223.2" r="4" fill="#1baf7a"/>
<text x="626" y="227.2" font-size="11" fill="#0b0b0b">detector</text>
<rect x="202.1" y="310" width="138.1" height="190" fill="#f1f0ec"/>
<line x1="64" x2="610" y1="500.0" y2="500.0" stroke="#b9b8b3" stroke-width="1"/>
<text x="56" y="504.0" font-size="11" fill="#52514e" text-anchor="end">0</text>
<line x1="64" x2="610" y1="436.7" y2="436.7" stroke="#e8e7e3" stroke-width="1"/>
<text x="56" y="440.7" font-size="11" fill="#52514e" text-anchor="end">200K</text>
<line x1="64" x2="610" y1="373.3" y2="373.3" stroke="#e8e7e3" stroke-width="1"/>
<text x="56" y="377.3" font-size="11" fill="#52514e" text-anchor="end">400K</text>
<line x1="64" x2="610" y1="310.0" y2="310.0" stroke="#e8e7e3" stroke-width="1"/>
<text x="56" y="314.0" font-size="11" fill="#52514e" text-anchor="end">600K</text>
<text x="64" y="302" font-size="12" fill="#0b0b0b">detector backlog (messages)</text>
<path d="M64.0,500.0 L116.6,499.7 L123.2,499.5 L129.8,499.5 L136.4,499.7 L142.9,499.7 L149.5,499.7 L156.1,499.7 L162.7,499.7 L169.3,499.7 L175.8,499.7 L182.4,499.7 L189.0,499.7 L195.6,499.7 L202.1,499.7 L208.7,492.4 L215.3,492.4 L221.9,468.4 L228.5,468.4 L235.0,445.1 L241.6,445.1 L248.2,429.0 L254.8,429.0 L261.3,411.3 L267.9,411.3 L274.5,376.7 L281.1,376.7 L287.7,358.6 L294.2,358.6 L300.8,340.1 L307.4,340.1 L314.0,316.4 L320.6,316.4 L327.1,314.0 L333.7,314.0 L340.3,369.8 L346.9,369.8 L353.4,408.5 L360.0,408.5 L366.6,434.4 L373.2,434.4 L379.8,460.2 L386.3,460.2 L392.9,494.9 L399.5,494.9 L406.1,499.7 L412.7,499.7 L419.2,498.7 L425.8,498.7 L432.4,499.7 L439.0,499.7 L445.5,499.7 L452.1,499.7 L458.7,499.7 L465.3,499.7 L471.9,499.7 L478.4,499.7 L485.0,499.7 L491.6,499.7 L498.2,499.7 L504.7,499.7 L511.3,499.5 L517.9,499.5 L524.5,499.7 L531.1,499.7 L537.6,499.7 L544.2,499.7 L550.8,499.6 L557.4,499.6 L564.0,499.6 L570.5,499.6 L577.1,499.7 L583.7,499.7 L590.3,499.6 L596.8,499.6 L603.4,498.4 L610.0,498.4" fill="none" stroke="#2a78d6" stroke-width="2" stroke-linejoin="round" stroke-linecap="round"/>
<circle cx="618" cy="494.4" r="4" fill="#2a78d6"/>
<text x="626" y="498.4" font-size="11" fill="#0b0b0b">backlog</text>
<text x="64.0" y="516" font-size="11" fill="#52514e" text-anchor="middle">0</text>
<text x="142.9" y="516" font-size="11" fill="#52514e" text-anchor="middle">60</text>
<text x="221.9" y="516" font-size="11" fill="#52514e" text-anchor="middle">120</text>
<text x="300.8" y="516" font-size="11" fill="#52514e" text-anchor="middle">180</text>
<text x="379.8" y="516" font-size="11" fill="#52514e" text-anchor="middle">240</text>
<text x="458.7" y="516" font-size="11" fill="#52514e" text-anchor="middle">300</text>
<text x="537.6" y="516" font-size="11" fill="#52514e" text-anchor="middle">360</text>
<text x="337.0" y="532" font-size="11" fill="#52514e" text-anchor="middle">seconds since the simulator started</text>
</svg>
